<svg xmlns="http://www.w3.org/2000/svg" viewBox="0 0 800 450" fill="none">
  <defs>
    <linearGradient id="bg" x1="0" y1="0" x2="800" y2="450" gradientUnits="userSpaceOnUse">
      <stop offset="0%" stop-color="#f0f0f5"/>
      <stop offset="100%" stop-color="#e8e4f0"/>
    </linearGradient>
  </defs>
  <rect width="800" height="450" fill="url(#bg)" rx="18"/>
  <!-- Badge -->
  <rect x="300" y="30" width="200" height="28" rx="14" fill="#1d1d1f" opacity="0.06"/>
  <text x="400" y="49" font-family="system-ui,sans-serif" font-size="12" font-weight="600" fill="#6e6e73" text-anchor="middle">AI图像编辑终极对比</text>
  <!-- Left card: Nano Banana -->
  <rect x="80" y="90" width="260" height="280" rx="16" fill="white" stroke="#e0e0e0" stroke-width="1"/>
  <rect x="100" y="110" width="220" height="100" rx="8" fill="#f5f5f7"/>
  <text x="210" y="150" font-family="system-ui,sans-serif" font-size="13" fill="#6e6e73" text-anchor="middle">Toogle New Application</text>
  <text x="210" y="175" font-family="system-ui,sans-serif" font-size="11" fill="#6e6e73" text-anchor="middle">Nano Banana</text>
  <text x="210" y="240" font-family="system-ui,sans-serif" font-size="18" font-weight="700" fill="#1d1d1f" text-anchor="middle">Nano Banana</text>
  <text x="210" y="265" font-family="system-ui,sans-serif" font-size="12" fill="#6e6e73" text-anchor="middle">快速 · 简洁 · 高性价比</text>
  <rect x="140" y="290" width="140" height="32" rx="16" fill="#0066cc"/>
  <text x="210" y="311" font-family="system-ui,sans-serif" font-size="13" font-weight="600" fill="white" text-anchor="middle">$9.9/月</text>
  <!-- VS circle -->
  <circle cx="400" cy="230" r="28" fill="#1d1d1f"/>
  <text x="400" y="236" font-family="system-ui,sans-serif" font-size="16" font-weight="700" fill="white" text-anchor="middle">VS</text>
  <!-- Right card: Flux Kontext -->
  <rect x="460" y="90" width="260" height="280" rx="16" fill="white" stroke="#e0e0e0" stroke-width="1"/>
  <rect x="480" y="110" width="220" height="100" rx="8" fill="#f5f5f7"/>
  <text x="590" y="150" font-family="system-ui,sans-serif" font-size="13" fill="#6e6e73" text-anchor="middle">Black Forest Labs</text>
  <text x="590" y="175" font-family="system-ui,sans-serif" font-size="11" fill="#6e6e73" text-anchor="middle">Flux Kontext</text>
  <text x="590" y="240" font-family="system-ui,sans-serif" font-size="18" font-weight="700" fill="#1d1d1f" text-anchor="middle">Flux Kontext</text>
  <text x="590" y="265" font-family="system-ui,sans-serif" font-size="12" fill="#6e6e73" text-anchor="middle">专业 · 精准 · 高质量</text>
  <rect x="520" y="290" width="140" height="32" rx="16" fill="#6f86f6"/>
  <text x="590" y="311" font-family="system-ui,sans-serif" font-size="13" font-weight="600" fill="white" text-anchor="middle">$14.9/月</text>
  <!-- Bottom bar -->
  <rect x="160" y="400" width="480" height="30" rx="15" fill="#1d1d1f" opacity="0.04"/>
  <text x="400" y="420" font-family="system-ui,sans-serif" font-size="12" fill="#6e6e73" text-anchor="middle">基于 LMArena 实测数据 · 2025年7月</text>
</svg>
